<svg width="24" height="24" viewBox="0 0 24 24" fill="none" xmlns="http://www.w3.org/2000/svg">
<path d="M4.30529 12.5591L4.30533 12.5591L13.5078 3.38194L13.5078 3.3819C14.2026 2.68754 15.1447 2.29759 16.1269 2.29785C16.6133 2.29798 17.0948 2.3939 17.5441 2.58014C17.9934 2.76638 18.4016 3.03929 18.7454 3.38329C19.0893 3.72729 19.3619 4.13564 19.5479 4.58502C19.734 5.03441 19.8296 5.51603 19.8295 6.00239C19.8294 6.48874 19.7334 6.97031 19.5472 7.4196C19.361 7.86866 19.0883 8.27668 18.7446 8.62039C18.7444 8.62056 18.7442 8.62073 18.744 8.62091L18.7291 8.63492L18.7287 8.63529L9.7475 17.2809C9.64545 17.3791 9.52505 17.4562 9.3932 17.5078C9.26134 17.5594 9.12061 17.5846 8.97903 17.5818C8.83746 17.5791 8.69781 17.5485 8.56806 17.4918C8.43831 17.435 8.32101 17.3533 8.22285 17.2513C8.12468 17.1492 8.04758 17.0288 7.99594 16.8969C7.94431 16.7651 7.91915 16.6244 7.9219 16.4828C7.92465 16.3412 7.95527 16.2016 8.01199 16.0718C8.06871 15.9421 8.15044 15.8248 8.25249 15.7266L8.2525 15.7266L17.2253 7.09033L17.2253 7.09034L17.2261 7.0896C17.5153 6.79858 17.6771 6.40458 17.6758 5.99428C17.6745 5.58397 17.5103 5.19098 17.2193 4.90175C17.0752 4.75854 16.9043 4.64511 16.7164 4.56795C16.5284 4.49078 16.3271 4.45139 16.124 4.45202C15.7137 4.45328 15.3207 4.61749 15.0314 4.90852L5.82909 14.0827L5.82903 14.0828C5.18733 14.7248 4.82693 15.5953 4.8271 16.503C4.82719 16.9525 4.9158 17.3975 5.08788 17.8127C5.25995 18.2279 5.51212 18.6051 5.82998 18.9228C6.14785 19.2406 6.52518 19.4926 6.94044 19.6645C7.35571 19.8364 7.80076 19.9249 8.2502 19.9248C9.15788 19.9246 10.0283 19.5638 10.67 18.9219C10.67 18.9219 10.67 18.9219 10.67 18.9219L18.3631 11.2344L18.3631 11.2344C18.4634 11.1341 18.5825 11.0545 18.7135 11.0003C18.8446 10.946 18.985 10.918 19.1269 10.918C19.2687 10.918 19.4092 10.946 19.5402 11.0003C19.6712 11.0545 19.7903 11.1341 19.8906 11.2344C19.9909 11.3347 20.0705 11.4538 20.1247 11.5848C20.179 11.7158 20.2069 11.8563 20.2069 11.9981C20.2069 12.14 20.179 12.2804 20.1247 12.4115C20.0721 12.5385 19.9957 12.6544 19.8996 12.7527L19.896 12.7536L19.8869 12.7628L12.1937 20.4503L12.2269 20.4834M4.30529 12.5591L4.27219 12.5259C3.21696 13.5808 2.62399 15.0116 2.62372 16.5037C2.62346 17.9957 3.21592 19.4268 4.27078 20.482C5.32564 21.5373 6.75648 22.1302 8.24854 22.1305C9.74059 22.1308 11.1716 21.5383 12.2269 20.4834M4.30529 12.5591C3.25887 13.6052 2.67086 15.0241 2.6706 16.5037C2.67034 17.9833 3.25786 19.4025 4.30393 20.4489C5.35 21.4953 6.76892 22.0834 8.24854 22.0836C9.72817 22.0839 11.1473 21.4964 12.1937 20.4503L12.2269 20.4834M4.30529 12.5591L12.2269 20.4834" fill="#475569" stroke="#475569" stroke-width="0.09375"/>
</svg>
