<svg width="24" height="24" viewBox="0 0 24 24" fill="none" xmlns="http://www.w3.org/2000/svg">
<path d="M4.82812 19.125V19.1719H4.875H12.375C13.8676 19.1719 15.3267 18.7293 16.5678 17.9C17.8089 17.0707 18.7762 15.8921 19.3474 14.5131C19.9186 13.1341 20.0681 11.6166 19.7769 10.1527C19.4857 8.68873 18.7669 7.344 17.7114 6.28855C16.656 5.2331 15.3113 4.51433 13.8473 4.22314C12.3834 3.93194 10.8659 4.08139 9.48694 4.6526C8.10792 5.2238 6.92926 6.1911 6.1 7.43218C5.27074 8.67326 4.82812 10.1324 4.82812 11.625V19.125ZM5.51687 4.76687C7.33597 2.94777 9.80243 1.9246 12.375 1.92188C14.9484 1.92188 17.4165 2.94417 19.2361 4.76385C21.0558 6.58354 22.0781 9.05157 22.0781 11.625C22.0781 14.1984 21.0558 16.6665 19.2361 18.4861C17.4165 20.3058 14.9484 21.3281 12.375 21.3281H4.5C4.01515 21.3281 3.55016 21.1355 3.20732 20.7927C2.86448 20.4498 2.67188 19.9848 2.67188 19.5V11.625C2.6746 9.05243 3.69777 6.58597 5.51687 4.76687ZM11.5781 12C11.5781 12.2874 11.4929 12.5683 11.3332 12.8073C11.1736 13.0463 10.9466 13.2325 10.6811 13.3425C10.4156 13.4525 10.1234 13.4813 9.84151 13.4252C9.55963 13.3691 9.30071 13.2307 9.09749 13.0275C8.89426 12.8243 8.75587 12.5654 8.6998 12.2835C8.64373 12.0016 8.6725 11.7094 8.78249 11.4439C8.89247 11.1784 9.07872 10.9514 9.31769 10.7918C9.55665 10.6321 9.8376 10.5469 10.125 10.5469C10.5104 10.5469 10.88 10.7 11.1525 10.9725C11.425 11.245 11.5781 11.6146 11.5781 12ZM16.0781 12C16.0781 12.2874 15.9929 12.5683 15.8332 12.8073C15.6736 13.0463 15.4466 13.2325 15.1811 13.3425C14.9156 13.4525 14.6234 13.4813 14.3415 13.4252C14.0596 13.3691 13.8007 13.2307 13.5975 13.0275C13.3943 12.8243 13.2559 12.5654 13.1998 12.2835C13.1437 12.0016 13.1725 11.7094 13.2825 11.4439C13.3925 11.1784 13.5787 10.9514 13.8177 10.7918C14.0567 10.6321 14.3376 10.5469 14.625 10.5469C15.0104 10.5469 15.38 10.7 15.6525 10.9725C15.925 11.245 16.0781 11.6146 16.0781 12Z" fill="#475569" stroke="#475569" stroke-width="0.09375"/>
</svg>
