<svg width="40" height="40" viewBox="0 0 40 40" fill="none" xmlns="http://www.w3.org/2000/svg">
<rect x="0.5" y="0.5" width="39" height="39" rx="19.5" stroke="#CBD5E1"/>
<path d="M12.3053 20.5591L12.3053 20.5591L21.5078 11.3819L21.5078 11.3819C22.2026 10.6875 23.1447 10.2976 24.1269 10.2979C24.6133 10.298 25.0948 10.3939 25.5441 10.5801C25.9934 10.7664 26.4016 11.0393 26.7454 11.3833C27.0893 11.7273 27.3619 12.1356 27.5479 12.585C27.734 13.0344 27.8296 13.516 27.8295 14.0024C27.8294 14.4887 27.7334 14.9703 27.5472 15.4196C27.361 15.8687 27.0883 16.2767 26.7446 16.6204C26.7444 16.6206 26.7442 16.6207 26.744 16.6209L26.7291 16.6349L26.7287 16.6353L17.7475 25.2809C17.6454 25.3791 17.5251 25.4562 17.3932 25.5078C17.2613 25.5594 17.1206 25.5846 16.979 25.5818C16.8375 25.5791 16.6978 25.5485 16.5681 25.4918C16.4383 25.435 16.321 25.3533 16.2228 25.2513C16.1247 25.1492 16.0476 25.0288 15.9959 24.8969C15.9443 24.7651 15.9191 24.6244 15.9219 24.4828C15.9247 24.3412 15.9553 24.2016 16.012 24.0718C16.0687 23.9421 16.1504 23.8248 16.2525 23.7266L16.2525 23.7266L25.2253 15.0903L25.2253 15.0903L25.2261 15.0896C25.5153 14.7986 25.6771 14.4046 25.6758 13.9943C25.6745 13.584 25.5103 13.191 25.2193 12.9018C25.0752 12.7585 24.9043 12.6451 24.7164 12.5679C24.5284 12.4908 24.3271 12.4514 24.124 12.452C23.7137 12.4533 23.3207 12.6175 23.0314 12.9085L13.8291 22.0827L13.829 22.0828C13.1873 22.7248 12.8269 23.5953 12.8271 24.503C12.8272 24.9525 12.9158 25.3975 13.0879 25.8127C13.26 26.2279 13.5121 26.6051 13.83 26.9228C14.1478 27.2406 14.5252 27.4926 14.9404 27.6645C15.3557 27.8364 15.8008 27.9249 16.2502 27.9248C17.1579 27.9246 18.0283 27.5638 18.67 26.9219C18.67 26.9219 18.67 26.9219 18.67 26.9219L26.3631 19.2344L26.3631 19.2344C26.4634 19.1341 26.5825 19.0545 26.7135 19.0003C26.8446 18.946 26.985 18.918 27.1269 18.918C27.2687 18.918 27.4092 18.946 27.5402 19.0003C27.6712 19.0545 27.7903 19.1341 27.8906 19.2344C27.9909 19.3347 28.0705 19.4538 28.1247 19.5848C28.179 19.7158 28.2069 19.8563 28.2069 19.9981C28.2069 20.14 28.179 20.2804 28.1247 20.4115C28.0721 20.5385 27.9957 20.6544 27.8996 20.7527L27.896 20.7536L27.8869 20.7628L20.1937 28.4503L20.2269 28.4834M12.3053 20.5591L12.2722 20.5259C11.217 21.5808 10.624 23.0116 10.6237 24.5037C10.6235 25.9957 11.2159 27.4268 12.2708 28.482C13.3256 29.5373 14.7565 30.1302 16.2485 30.1305C17.7406 30.1308 19.1716 29.5383 20.2269 28.4834M12.3053 20.5591C11.2589 21.6052 10.6709 23.0241 10.6706 24.5037C10.6703 25.9833 11.2579 27.4025 12.3039 28.4489C13.35 29.4953 14.7689 30.0834 16.2485 30.0836C17.7282 30.0839 19.1473 29.4964 20.1937 28.4503L20.2269 28.4834M12.3053 20.5591L20.2269 28.4834" fill="#475569" stroke="#475569" stroke-width="0.09375"/>
</svg>
