<svg width="40" height="40" viewBox="0 0 40 40" fill="none" xmlns="http://www.w3.org/2000/svg">
<rect width="40" height="40" rx="20" fill="#E2E8F0"/>
<path d="M28.7704 24.5391L21.9383 12.6742C21.7404 12.3358 21.4574 12.0551 21.1173 11.86C20.7773 11.6649 20.3921 11.5623 20.0001 11.5623C19.608 11.5623 19.2228 11.6649 18.8828 11.86C18.5427 12.0551 18.2597 12.3358 18.0618 12.6742L11.2297 24.5391C11.0377 24.8675 10.9365 25.241 10.9365 25.6215C10.9365 26.0019 11.0377 26.3755 11.2297 26.7039C11.4254 27.044 11.7081 27.3259 12.0487 27.5208C12.3893 27.7156 12.7756 27.8163 13.168 27.8125H26.8321C27.2242 27.816 27.6102 27.7152 27.9505 27.5204C28.2908 27.3256 28.5732 27.0438 28.7688 26.7039C28.9611 26.3756 29.0625 26.0021 29.0628 25.6217C29.0631 25.2413 28.9621 24.8676 28.7704 24.5391ZM27.1454 25.7656C27.1136 25.8198 27.0678 25.8643 27.0128 25.8946C26.9578 25.9248 26.8956 25.9397 26.8329 25.9375H13.168C13.1053 25.9397 13.0431 25.9248 12.9881 25.8946C12.9331 25.8643 12.8873 25.8198 12.8555 25.7656C12.8286 25.7218 12.8143 25.6714 12.8143 25.6199C12.8143 25.5685 12.8286 25.518 12.8555 25.4742L19.6876 13.6094C19.7214 13.5573 19.7677 13.5145 19.8223 13.4849C19.8768 13.4552 19.938 13.4397 20.0001 13.4397C20.0621 13.4397 20.1233 13.4552 20.1778 13.4849C20.2324 13.5145 20.2787 13.5573 20.3126 13.6094L27.1438 25.4742C27.171 25.5179 27.1855 25.5682 27.1858 25.6197C27.1861 25.6711 27.1721 25.7217 27.1454 25.7656ZM19.0626 20.625V18.125C19.0626 17.8764 19.1613 17.6379 19.3371 17.4621C19.513 17.2863 19.7514 17.1875 20.0001 17.1875C20.2487 17.1875 20.4871 17.2863 20.663 17.4621C20.8388 17.6379 20.9376 17.8764 20.9376 18.125V20.625C20.9376 20.8736 20.8388 21.1121 20.663 21.2879C20.4871 21.4637 20.2487 21.5625 20.0001 21.5625C19.7514 21.5625 19.513 21.4637 19.3371 21.2879C19.1613 21.1121 19.0626 20.8736 19.0626 20.625ZM21.2501 23.75C21.2501 23.9972 21.1767 24.2389 21.0394 24.4445C20.902 24.65 20.7068 24.8102 20.4784 24.9048C20.25 24.9995 19.9987 25.0242 19.7562 24.976C19.5137 24.9277 19.291 24.8087 19.1162 24.6339C18.9414 24.4591 18.8223 24.2363 18.7741 23.9939C18.7258 23.7514 18.7506 23.5 18.8452 23.2716C18.9398 23.0432 19.1 22.848 19.3056 22.7107C19.5111 22.5733 19.7528 22.5 20.0001 22.5C20.3316 22.5 20.6495 22.6317 20.8839 22.8661C21.1184 23.1005 21.2501 23.4185 21.2501 23.75Z" fill="#475569"/>
</svg>
