<svg width="93" height="30" viewBox="0 0 93 30" fill="none" xmlns="http://www.w3.org/2000/svg">
<rect width="30" height="30" rx="8" fill="url(#paint0_linear_23_4742)"/>
<path d="M13.57 24.39C13.0847 24.3727 12.608 24.26 12.14 24.052C11.672 23.844 11.2907 23.5233 10.996 23.09C10.5107 22.7953 10.1467 22.4227 9.904 21.972C9.66133 21.504 9.566 20.9667 9.618 20.36C9.73933 19.0773 9.86067 17.708 9.982 16.252C10.1207 14.7787 10.2507 13.158 10.372 11.39C10.5107 9.622 10.6233 7.646 10.71 5.462C10.7447 5.32333 10.8487 5.228 11.022 5.176C11.2127 5.124 11.4207 5.08933 11.646 5.072C12.062 5.072 12.4953 5.21933 12.946 5.514C13.3967 5.80867 13.778 6.25067 14.09 6.84C14.402 7.42933 14.558 8.166 14.558 9.05C14.558 10.6447 14.454 12.4213 14.246 14.38C14.038 16.3387 13.83 18.5053 13.622 20.88H13.7C14.2547 20.4813 14.8527 20.126 15.494 19.814C16.1353 19.502 16.7507 19.346 17.34 19.346C17.6867 19.346 18.0767 19.4413 18.51 19.632C18.9433 19.8053 19.3247 20.0393 19.654 20.334C19.9833 20.6113 20.148 20.9233 20.148 21.27C20.148 21.4953 20.044 21.6513 19.836 21.738L13.57 24.39Z" fill="white"/>
<path d="M43.9 22.3C43.5267 22.2867 43.16 22.2 42.8 22.04C42.44 21.88 42.1467 21.6333 41.92 21.3C41.5467 21.0733 41.2667 20.7867 41.08 20.44C40.8933 20.08 40.82 19.6667 40.86 19.2C40.9533 18.2133 41.0467 17.16 41.14 16.04C41.2467 14.9067 41.3467 13.66 41.44 12.3C41.5467 10.94 41.6333 9.42 41.7 7.74C41.7267 7.63333 41.8067 7.56 41.94 7.52C42.0867 7.48 42.2467 7.45333 42.42 7.44C42.74 7.44 43.0733 7.55333 43.42 7.78C43.7667 8.00667 44.06 8.34667 44.3 8.8C44.54 9.25333 44.66 9.82 44.66 10.5C44.66 11.7267 44.58 13.0933 44.42 14.6C44.26 16.1067 44.1 17.7733 43.94 19.6H44C44.4267 19.2933 44.8867 19.02 45.38 18.78C45.8733 18.54 46.3467 18.42 46.8 18.42C47.0667 18.42 47.3667 18.4933 47.7 18.64C48.0333 18.7733 48.3267 18.9533 48.58 19.18C48.8333 19.3933 48.96 19.6333 48.96 19.9C48.96 20.0733 48.88 20.1933 48.72 20.26L43.9 22.3ZM54.1741 22.3C53.7341 22.3 53.3074 22.2133 52.8941 22.04C52.4941 21.88 52.1674 21.6 51.9141 21.2C51.2741 20.8933 50.7807 20.36 50.4341 19.6C50.0874 18.84 49.9141 17.9533 49.9141 16.94C49.9141 16.06 50.0341 15.2267 50.2741 14.44C50.5141 13.64 50.8407 12.9333 51.2541 12.32C51.6674 11.7067 52.1407 11.2267 52.6741 10.88C53.2207 10.52 53.7941 10.34 54.3941 10.34C54.9007 10.34 55.4074 10.4333 55.9141 10.62C56.4207 10.7933 56.8607 11.1133 57.2341 11.58C57.8874 11.9133 58.3874 12.4 58.7341 13.04C59.0941 13.68 59.2741 14.38 59.2741 15.14C59.2741 16.1133 59.1741 17.0333 58.9741 17.9C58.7741 18.7667 58.4674 19.5333 58.0541 20.2C57.6407 20.8533 57.1141 21.3667 56.4741 21.74C55.8341 22.1133 55.0674 22.3 54.1741 22.3ZM53.7741 20.1C54.1741 20.1 54.5274 19.9267 54.8341 19.58C55.1407 19.2333 55.4007 18.7933 55.6141 18.26C55.8274 17.7133 55.9874 17.1267 56.0941 16.5C56.2141 15.8733 56.2741 15.28 56.2741 14.72C56.2741 14.1067 56.2007 13.5933 56.0541 13.18C55.9207 12.7667 55.7007 12.56 55.3941 12.56C54.9941 12.56 54.6407 12.7333 54.3341 13.08C54.0274 13.4267 53.7674 13.8733 53.5541 14.42C53.3407 14.9533 53.1741 15.5333 53.0541 16.16C52.9474 16.7867 52.8941 17.38 52.8941 17.94C52.8941 18.5533 52.9674 19.0667 53.1141 19.48C53.2607 19.8933 53.4807 20.1 53.7741 20.1ZM62.7977 22.28C62.411 22.28 62.0377 22.18 61.6777 21.98C61.331 21.78 61.0443 21.5067 60.8177 21.16C60.6043 20.8 60.4977 20.3933 60.4977 19.94C60.4977 19.4467 60.5177 18.7933 60.5577 17.98C60.5977 17.1533 60.6443 16.24 60.6977 15.24C60.7643 14.24 60.8377 13.2333 60.9177 12.22C61.011 11.1933 61.1043 10.2267 61.1977 9.32C61.291 8.4 61.3843 7.62667 61.4777 7C61.5043 6.86667 61.5377 6.75333 61.5777 6.66C61.631 6.55333 61.7443 6.5 61.9177 6.5C62.1443 6.5 62.391 6.55333 62.6577 6.66C62.9377 6.76667 63.2043 6.91333 63.4577 7.1C63.7243 7.28667 63.931 7.5 64.0777 7.74C64.2243 7.98 64.2777 8.23333 64.2377 8.5C64.131 9.22 64.0243 10.1067 63.9177 11.16C63.8243 12.2133 63.7377 13.3267 63.6577 14.5C63.9777 14.1133 64.3177 13.6733 64.6777 13.18C65.0377 12.6733 65.371 12.1867 65.6777 11.72C65.9977 11.24 66.2443 10.8467 66.4177 10.54C66.6043 10.1933 66.8577 10.02 67.1777 10.02C67.5243 10.02 67.8443 10.2067 68.1377 10.58C68.4443 10.94 68.5977 11.3933 68.5977 11.94C68.5977 12.1 68.5777 12.2667 68.5377 12.44C68.511 12.6133 68.4577 12.7933 68.3777 12.98C68.151 13.54 67.831 14.06 67.4177 14.54C67.0177 15.02 66.4643 15.58 65.7577 16.22C66.2643 17.3 66.911 18.32 67.6977 19.28C68.4843 20.24 69.3243 21.2133 70.2177 22.2C70.2843 22.2533 70.3243 22.3133 70.3377 22.38C70.3643 22.46 70.3777 22.5333 70.3777 22.6C70.3777 22.6933 70.3443 22.78 70.2777 22.86C70.211 22.94 70.111 22.98 69.9777 22.98C69.3243 22.98 68.671 22.8467 68.0177 22.58C67.3643 22.3133 66.811 21.92 66.3577 21.4C66.091 21.1067 65.791 20.7467 65.4577 20.32C65.1243 19.8933 64.7843 19.4533 64.4377 19C64.091 18.5333 63.771 18.0933 63.4777 17.68C63.4377 18.52 63.4043 19.32 63.3777 20.08C63.351 20.8267 63.3377 21.4867 63.3377 22.06C63.3377 22.2067 63.1577 22.28 62.7977 22.28ZM72.7163 22.28C72.3296 22.28 71.9563 22.18 71.5962 21.98C71.2496 21.78 70.9629 21.5067 70.7362 21.16C70.5229 20.8 70.4162 20.3933 70.4162 19.94C70.4162 19.4467 70.4362 18.7933 70.4762 17.98C70.5162 17.1533 70.5629 16.24 70.6162 15.24C70.6829 14.24 70.7562 13.2333 70.8362 12.22C70.9296 11.1933 71.0229 10.2267 71.1163 9.32C71.2096 8.4 71.3029 7.62667 71.3963 7C71.4229 6.86667 71.4562 6.75333 71.4963 6.66C71.5496 6.55333 71.6629 6.5 71.8363 6.5C72.0629 6.5 72.3096 6.55333 72.5763 6.66C72.8562 6.76667 73.1229 6.91333 73.3763 7.1C73.6429 7.28667 73.8496 7.5 73.9963 7.74C74.1429 7.98 74.1963 8.23333 74.1563 8.5C74.0496 9.22 73.9429 10.1067 73.8363 11.16C73.7429 12.2133 73.6563 13.3267 73.5762 14.5C73.8963 14.1133 74.2363 13.6733 74.5963 13.18C74.9563 12.6733 75.2896 12.1867 75.5963 11.72C75.9163 11.24 76.1629 10.8467 76.3363 10.54C76.5229 10.1933 76.7763 10.02 77.0963 10.02C77.4429 10.02 77.7629 10.2067 78.0563 10.58C78.3629 10.94 78.5163 11.3933 78.5163 11.94C78.5163 12.1 78.4963 12.2667 78.4563 12.44C78.4296 12.6133 78.3763 12.7933 78.2963 12.98C78.0696 13.54 77.7496 14.06 77.3363 14.54C76.9363 15.02 76.3829 15.58 75.6763 16.22C76.1829 17.3 76.8296 18.32 77.6163 19.28C78.4029 20.24 79.2429 21.2133 80.1363 22.2C80.2029 22.2533 80.2429 22.3133 80.2563 22.38C80.2829 22.46 80.2962 22.5333 80.2962 22.6C80.2962 22.6933 80.2629 22.78 80.1962 22.86C80.1296 22.94 80.0296 22.98 79.8963 22.98C79.2429 22.98 78.5896 22.8467 77.9363 22.58C77.2829 22.3133 76.7296 21.92 76.2763 21.4C76.0096 21.1067 75.7096 20.7467 75.3763 20.32C75.0429 19.8933 74.7029 19.4533 74.3563 19C74.0096 18.5333 73.6896 18.0933 73.3963 17.68C73.3563 18.52 73.3229 19.32 73.2962 20.08C73.2696 20.8267 73.2563 21.4867 73.2563 22.06C73.2563 22.2067 73.0763 22.28 72.7163 22.28ZM82.8948 22.28C82.5482 22.28 82.1815 22.2133 81.7948 22.08C81.4215 21.9467 81.1015 21.7533 80.8348 21.5C80.5815 21.2467 80.4548 20.94 80.4548 20.58C80.4548 20.3667 80.4682 19.9867 80.4948 19.44C80.5215 18.8933 80.5548 18.26 80.5948 17.54C80.6348 16.8067 80.6815 16.0533 80.7348 15.28C80.7882 14.4933 80.8482 13.7467 80.9148 13.04C80.9815 12.3333 81.0415 11.7333 81.0948 11.24C81.1082 11.1333 81.1748 11.0667 81.2948 11.04C81.4148 11 81.5148 10.98 81.5948 10.98C81.9015 10.98 82.2415 11.0667 82.6148 11.24C82.9882 11.4133 83.3082 11.6333 83.5748 11.9C83.8548 12.1667 83.9948 12.4467 83.9948 12.74C83.9948 12.9133 83.9682 13.26 83.9148 13.78C83.8615 14.2867 83.7948 14.8933 83.7148 15.6C83.6482 16.3067 83.5748 17.0467 83.4948 17.82C83.4282 18.5933 83.3682 19.3467 83.3148 20.08C83.2615 20.8 83.2348 21.4267 83.2348 21.96C83.2348 22.0267 83.2082 22.0933 83.1548 22.16C83.1015 22.24 83.0148 22.28 82.8948 22.28ZM83.1748 9C82.7348 9 82.3282 8.95333 81.9548 8.86C81.5948 8.75333 81.3082 8.56667 81.0948 8.3C80.8948 8.03333 80.8082 7.65333 80.8348 7.16C80.8615 6.90667 80.8948 6.63333 80.9348 6.34C80.9882 6.03333 81.1615 5.84667 81.4548 5.78C81.6148 5.75333 81.8082 5.73333 82.0348 5.72C82.2615 5.70667 82.4615 5.7 82.6348 5.7C83.0082 5.7 83.4215 5.76 83.8748 5.88C84.1015 5.93333 84.2148 6.02 84.2148 6.14C84.2148 6.44667 84.1682 6.80667 84.0748 7.22C83.9815 7.63333 83.8815 8.2 83.7748 8.92C83.5615 8.97333 83.3615 9 83.1748 9ZM88.8102 22.3C88.5168 22.3 88.1635 22.2067 87.7502 22.02C87.3502 21.8467 87.0502 21.5333 86.8502 21.08C86.5035 20.8667 86.2435 20.58 86.0702 20.22C85.8968 19.8467 85.8102 19.4133 85.8102 18.92C85.8102 18.6 85.8168 18.1333 85.8302 17.52C85.8435 16.9067 85.8635 16.2 85.8902 15.4C85.9302 14.6 85.9835 13.76 86.0502 12.88C85.6902 12.72 85.3635 12.4867 85.0702 12.18C84.7902 11.86 84.6502 11.6 84.6502 11.4C84.6502 11.24 84.6768 11.1133 84.7302 11.02C84.7968 10.9267 84.9168 10.8733 85.0902 10.86C85.4635 10.8067 85.8502 10.76 86.2502 10.72C86.3035 10.2933 86.3568 9.88 86.4102 9.48C86.4635 9.08 86.5235 8.68667 86.5902 8.3C86.6302 8.08667 86.6902 7.94667 86.7702 7.88C86.8502 7.8 86.9635 7.76 87.1102 7.76C87.5102 7.76 87.8968 7.86 88.2702 8.06C88.6568 8.26 88.9702 8.48667 89.2102 8.74C89.4635 8.99333 89.5768 9.2 89.5502 9.36C89.4835 9.76 89.4302 10.1333 89.3902 10.48C89.5768 10.48 89.7502 10.48 89.9102 10.48C90.1102 10.48 90.3435 10.54 90.6102 10.66C90.8902 10.7667 91.1568 10.9067 91.4102 11.08C91.6635 11.2533 91.8768 11.44 92.0502 11.64C92.2235 11.8267 92.3102 12 92.3102 12.16C92.3102 12.4 92.2502 12.5533 92.1302 12.62C92.0102 12.6867 91.8235 12.72 91.5702 12.72C91.3435 12.72 90.9968 12.74 90.5302 12.78C90.0635 12.8067 89.5702 12.84 89.0502 12.88C88.9035 14.0133 88.7702 15.14 88.6502 16.26C88.5435 17.38 88.4702 18.5067 88.4302 19.64C88.9368 19.4933 89.3435 19.2933 89.6502 19.04C89.9568 18.7733 90.2035 18.5267 90.3902 18.3C90.5902 18.06 90.7768 17.9067 90.9502 17.84C91.0302 17.8 91.1168 17.78 91.2102 17.78C91.4502 17.78 91.6502 17.9 91.8102 18.14C91.9835 18.38 92.0702 18.68 92.0702 19.04C92.0702 19.44 91.9502 19.8333 91.7102 20.22C91.4835 20.6067 91.1902 20.96 90.8302 21.28C90.4702 21.5867 90.1102 21.8333 89.7502 22.02C89.3902 22.2067 89.0768 22.3 88.8102 22.3Z" fill="black"/>
<defs>
<linearGradient id="paint0_linear_23_4742" x1="-6.4373e-08" y1="9.6" x2="30" y2="21.6" gradientUnits="userSpaceOnUse">
<stop stop-color="#E6E6E6"/>
<stop offset="0.146552" stop-color="#ADA7E0"/>
<stop offset="1" stop-color="#3B27F4"/>
</linearGradient>
</defs>
</svg>
