<svg width="24" height="24" viewBox="0 0 24 24" fill="none" xmlns="http://www.w3.org/2000/svg">
<path d="M5.25 22.875L5.25004 22.8282C4.95791 22.8279 4.6701 22.7577 4.4107 22.6234C4.1513 22.489 3.92788 22.2944 3.75914 22.056C3.59041 21.8175 3.48128 21.5421 3.44089 21.2528C3.40051 20.9634 3.43005 20.6687 3.52704 20.3931L3.52723 20.3925L6.3566 12.015L6.36167 12L6.3566 11.985L3.52723 3.60754L3.52723 3.60754L3.52706 3.60704C3.40434 3.25667 3.3912 2.87724 3.4894 2.51921C3.58759 2.16119 3.79246 1.84155 4.07675 1.6028C4.36105 1.36405 4.71129 1.21752 5.0809 1.18269C5.45044 1.14786 5.82183 1.22635 6.14568 1.40772C6.14574 1.40775 6.14579 1.40778 6.14585 1.40781L21.9011 10.3983L21.9119 10.4044H21.9157C22.1925 10.5636 22.4229 10.7925 22.5838 11.0685C22.7467 11.348 22.8326 11.6657 22.8326 11.9893C22.8326 12.3128 22.7467 12.6305 22.5838 12.9101C22.4208 13.1896 22.1866 13.4208 21.905 13.5802L21.9049 13.5803L6.15486 22.5868L6.15481 22.5868L6.15213 22.5885L6.14517 22.5932C5.8717 22.7466 5.5635 22.8275 5.24991 22.8282L5.25 22.875ZM5.25 22.875C5.5722 22.8744 5.88885 22.7911 6.16969 22.6332L6.16875 1.36691C5.83656 1.18083 5.45558 1.10029 5.0765 1.13602C4.69741 1.17174 4.33819 1.32203 4.04661 1.5669C3.75502 1.81177 3.5449 2.13961 3.44419 2.50681C3.34348 2.87402 3.35695 3.26318 3.48282 3.62254L6.31219 12L3.48282 20.3775C3.38334 20.6602 3.35305 20.9625 3.39447 21.2592C3.43589 21.556 3.54782 21.8385 3.72088 22.0831C3.89394 22.3276 4.12309 22.5272 4.38914 22.665C4.65519 22.8028 4.95039 22.8748 5.25 22.875ZM5.87966 20.1657L5.84014 20.2827L5.94734 20.2214L20.2677 12.0304L20.3389 11.9897L20.2676 11.949L5.94636 3.77683L5.83925 3.71571L5.87872 3.83254L8.26278 10.89L8.27355 10.9219H8.30719H13.5C13.7859 10.9219 14.0602 11.0355 14.2624 11.2377C14.4645 11.4399 14.5781 11.7141 14.5781 12C14.5781 12.286 14.4645 12.5602 14.2624 12.7624C14.0602 12.9646 13.7859 13.0782 13.5 13.0782H8.30719H8.27355L8.26278 13.11L5.87966 20.1657Z" fill="#4F46E5" stroke="#4F46E5" stroke-width="0.09375"/>
</svg>
