<svg width="20" height="20" viewBox="0 0 20 20" fill="none" xmlns="http://www.w3.org/2000/svg">
<path d="M18.7884 8.08746L12.5384 1.83746C12.4073 1.70624 12.2403 1.61685 12.0584 1.58059C11.8765 1.54433 11.688 1.56283 11.5166 1.63376C11.3452 1.70468 11.1988 1.82483 11.0957 1.97902C10.9926 2.1332 10.9376 2.3145 10.9376 2.49996V5.37027C8.92512 5.61402 6.74543 6.61168 4.94152 8.14136C2.66339 10.0742 1.24464 12.5703 0.946207 15.1726C0.915974 15.4338 0.968844 15.6978 1.0973 15.9272C1.22575 16.1565 1.42326 16.3396 1.66172 16.4502C1.90018 16.5609 2.16746 16.5936 2.42556 16.5436C2.68365 16.4936 2.91942 16.3635 3.09933 16.1718C3.91652 15.3015 6.77121 12.5984 10.9376 12.2328V15C10.9378 15.1853 10.9929 15.3664 11.0959 15.5204C11.1989 15.6744 11.3453 15.7944 11.5165 15.8653C11.6877 15.9362 11.876 15.9548 12.0578 15.9187C12.2395 15.8826 12.4065 15.7934 12.5376 15.6625L18.7876 9.41246C18.9633 9.23678 19.062 8.99856 19.0622 8.75012C19.0623 8.50168 18.9639 8.26334 18.7884 8.08746ZM12.8126 12.7343V11.25C12.8126 11.0013 12.7138 10.7629 12.538 10.587C12.3622 10.4112 12.1238 10.3125 11.8751 10.3125C8.04699 10.3125 5.11183 11.9968 3.29777 13.4461C3.8548 12.0273 4.83136 10.6945 6.1548 9.57183C7.91418 8.07886 10.0525 7.18746 11.8751 7.18746C12.1238 7.18746 12.3622 7.08869 12.538 6.91287C12.7138 6.73705 12.8126 6.4986 12.8126 6.24996V4.76558L16.797 8.74996L12.8126 12.7343Z" fill="#94A3B8"/>
</svg>
