<svg width="24" height="24" viewBox="0 0 24 24" fill="none" xmlns="http://www.w3.org/2000/svg">
<path d="M12 21C16.9706 21 21 16.9706 21 12C21 7.02944 16.9706 3 12 3C7.02944 3 3 7.02944 3 12C3 16.9706 7.02944 21 12 21Z" stroke="#000D26" stroke-width="1.5" stroke-linecap="round" stroke-linejoin="round"/>
<path d="M11.9999 11.81C13.5519 11.81 14.8099 10.5519 14.8099 9C14.8099 7.44808 13.5519 6.19 11.9999 6.19C10.448 6.19 9.18994 7.44808 9.18994 9C9.18994 10.5519 10.448 11.81 11.9999 11.81Z" stroke="#000D26" stroke-width="1.5" stroke-linecap="round" stroke-linejoin="round"/>
<path d="M5.91016 17.81C6.60473 16.8437 7.51927 16.0565 8.57822 15.5136C9.63717 14.9706 10.8101 14.6874 12.0002 14.6874C13.1902 14.6874 14.3631 14.9706 15.4221 15.5136C16.481 16.0565 17.3956 16.8437 18.0902 17.81" stroke="#000D26" stroke-width="1.5" stroke-linecap="round" stroke-linejoin="round"/>
</svg>
