<svg width="88" height="40" viewBox="0 0 88 40" fill="none" xmlns="http://www.w3.org/2000/svg">
<g filter="url(#filter0_d_60_1612)">
<circle cx="44" cy="20" r="20" fill="#4C77A6"/>
<path d="M49.7281 21.3727C50.3307 21.9792 50.9667 22.5498 51.5072 23.2174C51.746 23.5141 51.972 23.8203 52.1449 24.1646C52.39 24.654 52.168 25.1926 51.7423 25.2218L49.0957 25.2206C48.413 25.279 47.8685 24.9957 47.4106 24.5147C47.0442 24.1299 46.7049 23.7205 46.3525 23.3228C46.2081 23.1602 46.0569 23.0072 45.8763 22.8863C45.515 22.6446 45.2014 22.7186 44.9949 23.107C44.7846 23.5021 44.7369 23.9396 44.7163 24.3799C44.6879 25.0223 44.4995 25.1911 43.8735 25.2206C42.5356 25.2856 41.2659 25.077 40.0864 24.3813C39.0465 23.768 38.2401 22.9022 37.5382 21.922C36.1716 20.0133 35.1251 17.9161 34.1845 15.76C33.9728 15.2743 34.1276 15.0135 34.6476 15.0043C35.511 14.987 36.3743 14.9882 37.2387 15.0031C37.5896 15.0084 37.8219 15.2158 37.9574 15.5576C38.4245 16.7415 38.9961 17.868 39.7136 18.9121C39.9047 19.19 40.0995 19.468 40.3769 19.6637C40.6838 19.8803 40.9175 19.8085 41.0619 19.4561C41.1535 19.2326 41.1936 18.9919 41.2143 18.7526C41.2827 17.9292 41.2917 17.1072 41.1717 16.2866C41.0981 15.7746 40.8183 15.443 40.3225 15.3461C40.0696 15.2967 40.1072 15.1997 40.2297 15.0509C40.4425 14.7942 40.6425 14.6344 41.0414 14.6344H44.0325C44.5033 14.7302 44.6079 14.9482 44.6724 15.4367L44.675 18.8614C44.6698 19.0505 44.7666 19.6116 45.097 19.7367C45.3614 19.8258 45.5357 19.6078 45.6943 19.4349C46.4105 18.6514 46.9216 17.7255 47.3782 16.7667C47.5809 16.3452 47.7551 15.9073 47.924 15.4699C48.0491 15.1453 48.2454 14.9855 48.6001 14.9926L51.4789 14.9953C51.5642 14.9953 51.6506 14.9965 51.7333 15.0111C52.2183 15.0963 52.3513 15.3114 52.2015 15.7997C51.9654 16.5658 51.5061 17.2042 51.057 17.8456C50.5769 18.5303 50.0635 19.1916 49.5874 19.8804C49.15 20.5094 49.1847 20.8264 49.7281 21.3727Z" fill="white"/>
</g>
<defs>
<filter id="filter0_d_60_1612" x="0" y="-12" width="88" height="88" filterUnits="userSpaceOnUse" color-interpolation-filters="sRGB">
<feFlood flood-opacity="0" result="BackgroundImageFix"/>
<feColorMatrix in="SourceAlpha" type="matrix" values="0 0 0 0 0 0 0 0 0 0 0 0 0 0 0 0 0 0 127 0" result="hardAlpha"/>
<feOffset dy="12"/>
<feGaussianBlur stdDeviation="12"/>
<feColorMatrix type="matrix" values="0 0 0 0 0 0 0 0 0 0 0 0 0 0 0 0 0 0 0.1 0"/>
<feBlend mode="normal" in2="BackgroundImageFix" result="effect1_dropShadow_60_1612"/>
<feBlend mode="normal" in="SourceGraphic" in2="effect1_dropShadow_60_1612" result="shape"/>
</filter>
</defs>
</svg>
