<svg width="88" height="40" viewBox="0 0 88 40" fill="none" xmlns="http://www.w3.org/2000/svg">
<g filter="url(#filter0_d_60_1622)">
<circle cx="44" cy="20" r="20" fill="#F52929"/>
<path fill-rule="evenodd" clip-rule="evenodd" d="M52.3077 13.8974C52.8488 14.5174 53.0398 15.9207 53.0398 15.9207C53.0398 15.9207 53.2308 17.5851 53.2308 19.2494V20.7832C53.2308 22.4149 53.0398 24.0792 53.0398 24.0792C53.0398 24.0792 52.8489 25.4825 52.3077 26.1025C51.6418 26.8474 50.8895 26.9134 50.5162 26.9462C50.497 26.9478 50.4788 26.9494 50.4616 26.951C47.8834 27.1795 44.0001 27.1795 44.0001 27.1795C44.0001 27.1795 39.1937 27.1468 37.7295 26.9837C37.6517 26.9653 37.5559 26.9515 37.447 26.9358C36.9765 26.8681 36.261 26.765 35.6924 26.1026C35.1513 25.4826 34.9603 24.0793 34.9603 24.0793C34.9603 24.0793 34.7693 22.4476 34.7693 20.7832V19.2494C34.7693 17.5851 34.9603 15.9207 34.9603 15.9207C34.9603 15.9207 35.1194 14.5175 35.6924 13.8974C36.3583 13.1526 37.1106 13.0866 37.4839 13.0538C37.5031 13.0521 37.5214 13.0505 37.5385 13.0489C40.1168 12.8531 44.0001 12.8205 44.0001 12.8205C44.0001 12.8205 47.8834 12.8531 50.4616 13.0489C50.4882 13.0514 50.5173 13.0537 50.5488 13.0562C50.932 13.0863 51.6606 13.1435 52.3077 13.8974ZM41.772 23.7855V16.7039L47.8197 20.3264L41.772 23.7855Z" fill="white"/>
</g>
<defs>
<filter id="filter0_d_60_1622" x="0" y="-12" width="88" height="88" filterUnits="userSpaceOnUse" color-interpolation-filters="sRGB">
<feFlood flood-opacity="0" result="BackgroundImageFix"/>
<feColorMatrix in="SourceAlpha" type="matrix" values="0 0 0 0 0 0 0 0 0 0 0 0 0 0 0 0 0 0 127 0" result="hardAlpha"/>
<feOffset dy="12"/>
<feGaussianBlur stdDeviation="12"/>
<feColorMatrix type="matrix" values="0 0 0 0 0 0 0 0 0 0 0 0 0 0 0 0 0 0 0.1 0"/>
<feBlend mode="normal" in2="BackgroundImageFix" result="effect1_dropShadow_60_1622"/>
<feBlend mode="normal" in="SourceGraphic" in2="effect1_dropShadow_60_1622" result="shape"/>
</filter>
</defs>
</svg>
